:FULLY-SPECIFIED
:FORCE-ALL-JOINTS-BE-3DOF
:DEGREES
577
root 7.28905 15.7354 -3.56275 -124.451 54.1644 -130.056
lfemur -23.1901 9.14953 -18.0065
ltibia 59.5865 0 0
lfoot -37.0348 2.23338 0
ltoes 1.9143 0 0
rfemur -47.7081 -6.22436 8.39428
rtibia 50.1209 0 0
rfoot 5.98864 12.6474 0
rtoes -27.2709 0 0
lowerback 7.86057 -1.60722 -1.86325
upperback 2.9867 -1.94349 3.68869
thorax -1.10712 -0.897431 4.9981
lowerneck -4.43778 -12.9481 -3.31713
upperneck 10.6235 -17.7036 5.60508
head 4.78564 -8.52202 1.18665
lclavicle 2.08723e-015 3.82602e-014 0
lhumerus -38.875 -18.7761 98.7313
lradius 54.5049 0 0
lwrist 24.836 0 0
lhand -21.1589 -4.03555 0
lfingers 7.12502 0 0
lthumb 5.21741 25.7748 0
rclavicle 2.08723e-015 3.82602e-014 0
rhumerus 20.8489 13.0119 -76.7805
rradius 128.794 0 0
rwrist -48.601 0 0
rhand -27.7943 -22.4837 0
rfingers 7.12502 0 0
rthumb -1.18725 -772.46 0
578
root 7.24328 15.7629 -3.57032 -120.962 54.0084 -126.633
lfemur -23.0299 9.59868 -18.145
ltibia 59.021 0 0
lfoot -36.9544 2.90556 0
ltoes 2.51167 0 0
rfemur -47.8778 -6.55419 8.90831
rtibia 50.5954 0 0
rfoot 6.09374 13.1315 0
rtoes -26.6478 0 0
lowerback 7.73881 -1.66078 -1.93448
upperback 2.89955 -2.02486 3.61812
thorax -1.1217 -0.938965 4.96687
lowerneck -4.56037 -12.8335 -3.22746
upperneck 10.7527 -17.5601 5.54664
head 4.82857 -8.44607 1.15647
lclavicle 1.98784e-015 3.68882e-014 0
lhumerus -38.416 -19.4613 98.6018
lradius 54.5971 0 0
lwrist 24.7037 0 0
lhand -20.8669 -3.92938 0
lfingers 7.12502 0 0
lthumb 5.49915 25.8699 0
rclavicle 1.98784e-015 3.68882e-014 0
rhumerus 20.8763 12.724 -76.6442
rradius 128.417 0 0
rwrist -48.8912 0 0
rhand -27.8088 -22.5337 0
rfingers 7.12502 0 0
rthumb -1.20127 -772.51 0
579
root 7.19751 15.7903 -3.57788 -117.474 53.8524 -123.211
lfemur -22.8696 10.0478 -18.2835
ltibia 58.4554 0 0
lfoot -36.8739 3.57773 0
ltoes 3.10904 0 0
rfemur -48.0475 -6.88402 9.42233
rtibia 51.0698 0 0
rfoot 6.19884 13.6156 0
rtoes -26.0246 0 0
lowerback 7.61704 -1.71435 -2.00572
upperback 2.8124 -2.10624 3.54755
thorax -1.13628 -0.980499 4.93565
lowerneck -4.68295 -12.7189 -3.13778
upperneck 10.882 -17.4167 5.48821
head 4.8715 -8.37012 1.12629
lclavicle 1.88845e-015 3.55162e-014 0
lhumerus -37.9569 -20.1465 98.4723
lradius 54.6893 0 0
lwrist 24.5714 0 0
lhand -20.5749 -3.82321 0
lfingers 7.12502 0 0
lthumb 5.7809 25.9649 0
rclavicle 1.88845e-015 3.55162e-014 0
rhumerus 20.9037 12.436 -76.508
rradius 128.039 0 0
rwrist -49.1815 0 0
rhand -27.8233 -22.5837 0
rfingers 7.12502 0 0
rthumb -1.21529 -772.56 0
580
root 7.15175 15.8177 -3.58545 -113.985 53.6963 -119.788
lfemur -22.7093 10.497 -18.422
ltibia 57.8899 0 0
lfoot -36.7935 4.24991 0
ltoes 3.70641 0 0
rfemur -48.2173 -7.21385 9.93636
rtibia 51.5442 0 0
rfoot 6.30393 14.0997 0
rtoes -25.4015 0 0
lowerback 7.49527 -1.76792 -2.07695
upperback 2.72525 -2.18762 3.47698
thorax -1.15087 -1.02203 4.90442
lowerneck -4.80553 -12.6043 -3.04811
upperneck 11.0112 -17.2732 5.42978
head 4.91443 -8.29417 1.09611
lclavicle 1.78906e-015 3.41442e-014 0
lhumerus -37.4979 -20.8316 98.3428
lradius 54.7815 0 0
lwrist 24.4392 0 0
lhand -20.2829 -3.71703 0
lfingers 7.12502 0 0
lthumb 6.06264 26.0599 0
rclavicle 1.78906e-015 3.41442e-014 0
rhumerus 20.9311 12.148 -76.3717
rradius 127.662 0 0
rwrist -49.4717 0 0
rhand -27.8379 -22.6337 0
rfingers 7.12502 0 0
rthumb -1.22931 -772.61 0
581
root 7.10598 15.8452 -3.59301 -110.497 53.5403 -116.366
lfemur -22.5491 10.9461 -18.5605
ltibia 57.3243 0 0
lfoot -36.7131 4.92208 0
ltoes 4.30378 0 0
rfemur -48.387 -7.54368 10.4504
rtibia 52.0187 0 0
rfoot 6.40903 14.5838 0
rtoes -24.7784 0 0
lowerback 7.37351 -1.82148 -2.14818
upperback 2.6381 -2.26899 3.4064
thorax -1.16545 -1.06357 4.87319
lowerneck -4.92812 -12.4897 -2.95844
upperneck 11.1404 -17.1297 5.37134
head 4.95737 -8.21822 1.06593
lclavicle 1.68967e-015 3.27722e-014 0
lhumerus -37.0389 -21.5168 98.2132
lradius 54.8737 0 0
lwrist 24.3069 0 0
lhand -19.9909 -3.61086 0
lfingers 7.12502 0 0
lthumb 6.34439 26.155 0
rclavicle 1.68967e-015 3.27722e-014 0
rhumerus 20.9585 11.8601 -76.2355
rradius 127.284 0 0
rwrist -49.7619 0 0
rhand -27.8524 -22.6837 0
rfingers 7.12502 0 0
rthumb -1.24334 -772.66 0
582
root 7.06021 15.8726 -3.60058 -107.008 53.3843 -112.943
lfemur -22.3888 11.3953 -18.6989
ltibia 56.7588 0 0
lfoot -36.6327 5.59426 0
ltoes 4.90115 0 0
rfemur -48.5567 -7.87351 10.9644
rtibia 52.4931 0 0
rfoot 6.51413 15.068 0
rtoes -24.1553 0 0
lowerback 7.25174 -1.87505 -2.21942
upperback 2.55095 -2.35037 3.33583
thorax -1.18003 -1.1051 4.84196
lowerneck -5.0507 -12.3751 -2.86876
upperneck 11.2697 -16.9862 5.31291
head 5.0003 -8.14227 1.03575
lclavicle 1.59027e-015 3.14002e-014 0
lhumerus -36.5799 -22.202 98.0837
lradius 54.9659 0 0
lwrist 24.1746 0 0
lhand -19.6989 -3.50469 0
lfingers 7.12502 0 0
lthumb 6.62613 26.25 0
rclavicle 1.59027e-015 3.14002e-014 0
rhumerus 20.9859 11.5721 -76.0992
rradius 126.907 0 0
rwrist -50.0522 0 0
rhand -27.8669 -22.7336 0
rfingers 7.12502 0 0
rthumb -1.25736 -772.71 0
583
root 7.01445 15.9 -3.60815 -103.519 53.2283 -109.521
lfemur -22.2285 11.8444 -18.8374
ltibia 56.1932 0 0
lfoot -36.5522 6.26644 0
ltoes 5.49852 0 0
rfemur -48.7264 -8.20334 11.4784
rtibia 52.9676 0 0
rfoot 6.61923 15.5521 0
rtoes -23.5322 0 0
lowerback 7.12997 -1.92861 -2.29065
upperback 2.4638 -2.43175 3.26526
thorax -1.19461 -1.14663 4.81074
lowerneck -5.17329 -12.2605 -2.77909
upperneck 11.3989 -16.8428 5.25447
head 5.04323 -8.06632 1.00556
lclavicle 1.49088e-015 3.00282e-014 0
lhumerus -36.1208 -22.8871 97.9542
lradius 55.0581 0 0
lwrist 24.0423 0 0
lhand -19.4069 -3.39851 0
lfingers 7.12502 0 0
lthumb 6.90787 26.345 0
rclavicle 1.49088e-015 3.00282e-014 0
rhumerus 21.0133 11.2841 -75.963
rradius 126.53 0 0
rwrist -50.3424 0 0
rhand -27.8814 -22.7836 0
rfingers 7.12502 0 0
rthumb -1.27138 -772.76 0
584
root 6.96868 15.9274 -3.61571 -100.031 53.0722 -106.098
lfemur -22.0683 12.2936 -18.9759
ltibia 55.6277 0 0
lfoot -36.4718 6.93861 0
ltoes 6.09589 0 0
rfemur -48.8962 -8.53316 11.9925
rtibia 53.442 0 0
rfoot 6.72432 16.0362 0
rtoes -22.9091 0 0
lowerback 7.00821 -1.98218 -2.36188
upperback 2.37664 -2.51312 3.19469
thorax -1.2092 -1.18817 4.77951
lowerneck -5.29587 -12.1459 -2.68942
upperneck 11.5281 -16.6993 5.19604
head 5.08616 -7.99037 0.975384
lclavicle 1.39149e-015 2.86562e-014 0
lhumerus -35.6618 -23.5723 97.8247
lradius 55.1503 0 0
lwrist 23.9101 0 0
lhand -19.115 -3.29234 0
lfingers 7.12502 0 0
lthumb 7.18962 26.4401 0
rclavicle 1.39149e-015 2.86562e-014 0
rhumerus 21.0407 10.9962 -75.8268
rradius 126.152 0 0
rwrist -50.6326 0 0
rhand -27.8959 -22.8336 0
rfingers 7.12502 0 0
rthumb -1.28541 -772.809 0
585
root 6.92292 15.9549 -3.62328 -96.5424 52.9162 -102.676
lfemur -21.908 12.7427 -19.1144
ltibia 55.0621 0 0
lfoot -36.3914 7.61079 0
ltoes 6.69326 0 0
rfemur -49.0659 -8.86299 12.5065
rtibia 53.9164 0 0
rfoot 6.82942 16.5203 0
rtoes -22.2859 0 0
lowerback 6.88644 -2.03574 -2.43312
upperback 2.28949 -2.5945 3.12412
thorax -1.22378 -1.2297 4.74828
lowerneck -5.41845 -12.0313 -2.59974
upperneck 11.6574 -16.5558 5.13761
head 5.12909 -7.91442 0.945203
lclavicle 1.2921e-015 2.72842e-014 0
lhumerus -35.2028 -24.2575 97.6952
lradius 55.2425 0 0
lwrist 23.7778 0 0
lhand -18.823 -3.18617 0
lfingers 7.12502 0 0
lthumb 7.47136 26.5351 0
rclavicle 1.2921e-015 2.72842e-014 0
rhumerus 21.0681 10.7082 -75.6905
rradius 125.775 0 0
rwrist -50.9229 0 0
rhand -27.9105 -22.8836 0
rfingers 7.12502 0 0
rthumb -1.29943 -772.859 0
